<?xml version="1.0" encoding="UTF-8" standalone="no"?>
<svg width="113px" height="97px" viewBox="0 0 113 97" version="1.1" xmlns="http://www.w3.org/2000/svg" xmlns:xlink="http://www.w3.org/1999/xlink" xmlns:sketch="http://www.bohemiancoding.com/sketch/ns">
    <!-- Generator: Sketch 3.2.2 (9983) - http://www.bohemiancoding.com/sketch -->
    <title>Slice 1</title>
    <desc>Created with Sketch.</desc>
    <defs></defs>
    <g id="Page-1" stroke="none" stroke-width="1" fill="none" fill-rule="evenodd" sketch:type="MSPage">
        <g id="Group" sketch:type="MSLayerGroup" transform="translate(2.000000, 2.000000)">
            <g stroke="#EAE5E1" stroke-width="1" fill="#F7F4F2" sketch:type="MSShapeGroup">
                <path d="M106.46301,85.14455 L2.89099,85.14455 C1.78644,85.14455 0.89099,84.24913 0.89099,83.14455 L0.89099,2.819 C0.89099,1.71443 1.78644,0.819 2.89099,0.819 L106.46301,0.819 C107.56756,0.819 108.46301,1.71443 108.46301,2.819 L108.46301,83.14455 C108.46301,84.24913 107.56757,85.14455 106.46301,85.14455 L106.46301,85.14455 Z" id="Shape"></path>
                <rect id="Rectangle-path" x="16.0498" y="29.63066" width="30.45434" height="41.00223"></rect>
                <rect id="Rectangle-path" transform="translate(78.077030, 39.231215) rotate(180.000000) translate(-78.077030, -39.231215) " x="62.84986" y="29.63066" width="30.45434" height="19.20111"></rect>
                <path d="M106.46301,0.819 L2.89099,0.819 C1.78644,0.819 0.89099,1.71443 0.89099,2.819 L0.89099,13.74716 L108.46301,13.74716 L108.46301,2.819 C108.46301,1.71443 107.56757,0.819 106.46301,0.819 L106.46301,0.819 Z" id="Shape"></path>
                <path d="M60.24982,60.55142 L95.90417,60.55142" id="Shape"></path>
                <path d="M60.24982,70.63289 L95.90417,70.63289" id="Shape"></path>
            </g>
            <g transform="translate(25.000000, 19.000000)" sketch:type="MSShapeGroup">
                <path d="M81.05084,75.41467 L2.30316,75.41467 C1.19855,75.41467 0.30316,74.51925 0.30316,73.41469 L0.30316,12.54888 C0.30316,11.44431 1.19855,10.54888 2.30316,10.54888 L81.05084,10.54888 C82.15539,10.54888 83.05084,11.44431 83.05084,12.54888 L83.05084,73.41469 C83.05084,74.51926 82.1554,75.41467 81.05084,75.41467 L81.05084,75.41467 Z" id="Shape" opacity="0.3" fill="#493A60"></path>
                <path d="M81.05084,65.41469 L2.30316,65.41469 C1.19855,65.41469 0.30316,64.51926 0.30316,63.41469 L0.30316,2.54888 C0.30316,1.44431 1.19855,0.54888 2.30316,0.54888 L81.05084,0.54888 C82.15539,0.54888 83.05084,1.44431 83.05084,2.54888 L83.05084,63.41469 C83.05084,64.51926 82.1554,65.41469 81.05084,65.41469 L81.05084,65.41469 Z" id="Shape" stroke="#493A60" stroke-width="1" fill="#E2F0F7"></path>
                <rect id="Rectangle-path" stroke="#493A60" stroke-width="1" fill="#E52E44" x="11.96381" y="22.71169" width="23.42641" height="31.54017"></rect>
                <rect id="Rectangle-path" stroke="#493A60" stroke-width="1" fill="#93C94C" transform="translate(59.676985, 30.096745) rotate(180.000000) translate(-59.676985, -30.096745) " x="47.96378" y="22.7117" width="23.42641" height="14.77009"></rect>
                <path d="M81.05084,0.54887 L2.30316,0.54887 C1.19855,0.54887 0.30316,1.4443 0.30316,2.54887 L0.30316,10.4936 L83.05084,10.4936 L83.05084,2.54887 C83.05084,1.44431 82.1554,0.54887 81.05084,0.54887 L81.05084,0.54887 Z" id="Shape" stroke="#493A60" stroke-width="1" fill="#996633"></path>
                <path d="M45.96381,46.49689 L73.3902,46.49689" id="Shape" stroke="#493A60" stroke-width="1" fill="#E2F0F7"></path>
                <path d="M45.96381,54.25186 L73.3902,54.25186" id="Shape" stroke="#493A60" stroke-width="1" fill="#E2F0F7"></path>
            </g>
        </g>
    </g>
</svg>
