<?xml version="1.0" encoding="UTF-8" standalone="no"?>
<svg width="124px" height="85px" viewBox="0 0 124 85" version="1.1" xmlns="http://www.w3.org/2000/svg" xmlns:xlink="http://www.w3.org/1999/xlink" xmlns:sketch="http://www.bohemiancoding.com/sketch/ns">
    <!-- Generator: Sketch 3.2.2 (9983) - http://www.bohemiancoding.com/sketch -->
    <title>Untitled 8</title>
    <desc>Created with Sketch.</desc>
    <defs></defs>
    <g id="Page-1" stroke="none" stroke-width="1" fill="none" fill-rule="evenodd" sketch:type="MSPage">
        <g id="Group" sketch:type="MSLayerGroup">
            <path d="M111.502899,43.7744141 L25.0068016,43.7744141 C18.5307999,43.7744141 13.2621994,38.5058594 13.2621994,32.0292969 L13.2621994,31.1748047 C13.2621994,24.6982422 18.5307999,19.4296875 25.0068016,19.4296875 L111.502895,19.4296875 C117.979,19.4296875 123.247997,24.6982422 123.247997,31.1748047 L123.247997,32.0292969 C123.248001,38.5058594 117.979004,43.7744141 111.502899,43.7744141 L111.502899,43.7744141 Z M25.0068016,22.4296875 C20.1851006,22.4296875 16.2621994,26.3525391 16.2621994,31.1748047 L16.2621994,32.0292969 C16.2621994,36.8515625 20.1851006,40.7744141 25.0068016,40.7744141 L111.502895,40.7744141 C116.325191,40.7744141 120.247997,36.8515625 120.247997,32.0292969 L120.247997,31.1748047 C120.247997,26.3525391 116.325191,22.4296875 111.502895,22.4296875 L25.0068016,22.4296875 L25.0068016,22.4296875 Z" id="Shape" fill="#444445" sketch:type="MSShapeGroup"></path>
            <path d="M25.4394989,19.1914062 C24.841301,19.1914062 24.2764015,18.8320312 24.043499,18.2412109 C23.7397003,17.4707031 24.1181984,16.5996093 24.8886986,16.2958984 C26.9076996,15.4990234 74.5575943,-3.1435547 93.6688957,1.7470703 C94.2060966,1.8847656 94.6234855,2.3076172 94.7543907,2.8466797 C94.8852959,3.3847656 94.7079887,3.9521485 94.2938957,4.3212891 C93.7645988,4.7919922 81.138195,15.8876953 64.136692,19.1640625 C63.3187904,19.3232422 62.5370979,18.7871094 62.3803977,17.9755859 C62.2230948,17.1621093 62.7558936,16.375 63.5692939,16.21875 C75.4677924,13.9257812 85.3207893,7.4316406 89.763195,4.1025391 C69.7133903,1.9580079 26.4481964,18.9052735 25.9892959,19.0869141 C25.8086014,19.1582031 25.6226006,19.1914062 25.4394989,19.1914062 L25.4394989,19.1914062 Z" id="Shape" fill="#4990E2" sketch:type="MSShapeGroup"></path>
            <path d="M64.2792969,11.5595703 C63.6420975,11.5595703 63.0507965,11.1503906 62.8490982,10.5097656 C62.6000977,9.7197265 63.0391006,8.8779297 63.8290939,8.6289062 L72.669899,5.8447265 C73.4584961,5.5986327 74.3022003,6.0341796 74.5513001,6.8251953 C74.8003006,7.6152344 74.3612977,8.4570312 73.5712967,8.7060547 L64.7304993,11.4902344 C64.5805969,11.5371094 64.4286957,11.5595703 64.2792969,11.5595703 L64.2792969,11.5595703 Z" id="Shape" fill="#444445" sketch:type="MSShapeGroup"></path>
            <path d="M13.6273994,44.1630859 C13.1615982,44.1630859 12.7148017,44.0917968 12.2821998,43.9365234 C11.0966987,43.5097656 10.2089996,42.5175781 9.5688018,40.9023437 C8.9296989,39.2890625 9.2910003,38.0683593 9.7065009,37.3281249 C10.9165,35.1718749 13.9520987,34.5927733 14.2938994,34.533203 C15.1094016,34.3906249 15.8866995,34.9404296 16.0269011,35.7568358 C16.1674994,36.5712889 15.6221007,37.345703 14.8086012,37.4892577 L14.8086012,37.4892577 C14.1708983,37.6035155 12.724098,38.0742186 12.3208006,38.798828 C12.2636984,38.9023436 12.1113012,39.1748046 12.3578985,39.7968749 C12.563999,40.3173827 12.8945005,40.9687499 13.2974012,41.1132811 C14.2509992,41.4609373 16.8936002,40.001953 18.4730985,39.1337889 C19.1982,38.7343748 20.1104009,38.9990233 20.5102994,39.7255858 C20.9091985,40.4511717 20.6445004,41.3632811 19.9184987,41.7626952 C17.4141006,43.1396484 15.3881989,44.1630859 13.6273994,44.1630859 L13.6273994,44.1630859 Z" id="Shape" fill="#444445" sketch:type="MSShapeGroup"></path>
            <path d="M5.330101,48.6894531 C3.4985008,48.6894531 2.0410004,47.9765625 1.3218002,46.7265625 C0.5913009,45.4580078 0.7221985,43.8095703 1.6796989,42.2041016 C2.4906997,40.8457032 3.8413009,39.5771485 5.4818992,38.6337891 C5.9081992,38.3886719 6.3339996,38.1748047 6.748001,37.9980469 C10.1371993,36.5341797 13.354,36.991211 14.570301,39.1074219 C14.9828987,39.8261719 14.7349014,40.7421875 14.0166015,41.1552735 C13.2993011,41.5664063 12.3818015,41.3212891 11.9687995,40.6015626 C11.6698989,40.0820314 10.0615005,39.8359376 7.9331016,40.7539064 C7.6211013,40.8876955 7.3008003,41.0488283 6.9766006,41.2343752 C5.7919998,41.9160158 4.8003006,42.8300783 4.2559013,43.7412111 C3.8876991,44.3583986 3.7568016,44.9433595 3.9219017,45.2304689 C4.0868988,45.5185548 4.6514015,45.6601564 5.3764992,45.6894533 C6.4384995,45.6777345 7.7275009,45.2792971 8.9131012,44.5976564 C9.1865006,44.4394533 9.4473,44.2714845 9.6943016,44.0957033 C10.3686981,43.6132814 11.3056984,43.7724611 11.7860985,44.4472658 C12.2666016,45.1220705 12.1094017,46.0585939 11.4346008,46.5390627 C11.1113014,46.7695315 10.7695007,46.9902346 10.4101982,47.1972658 C8.7686005,48.1416017 6.9931984,48.6708986 5.4110985,48.6894533 C5.3838005,48.6894531 5.3568993,48.6894531 5.330101,48.6894531 L5.330101,48.6894531 Z" id="Shape" fill="#444445" sketch:type="MSShapeGroup"></path>
            <path d="M106.6064,33.1015625 L99.5077972,33.1015625 C98.6791992,33.1015625 98.0077972,32.4296875 98.0077972,31.6015625 C98.0077972,30.7734375 98.6791992,30.1015625 99.5077972,30.1015625 L106.6064,30.1015625 C107.435089,30.1015625 108.1064,30.7734375 108.1064,31.6015625 C108.1064,32.4296875 107.435089,33.1015625 106.6064,33.1015625 L106.6064,33.1015625 Z" id="Shape" fill="#D0011B" sketch:type="MSShapeGroup"></path>
            <path d="M103.057098,36.6503906 C102.2285,36.6503906 101.557098,35.9785156 101.557098,35.1503906 L101.557098,28.0517578 C101.557098,27.2236328 102.2285,26.5517578 103.057098,26.5517578 C103.885696,26.5517578 104.557098,27.2236328 104.557098,28.0517578 L104.557098,35.1503906 C104.557098,35.9785156 103.885696,36.6503906 103.057098,36.6503906 L103.057098,36.6503906 Z" id="Shape" fill="#D0011B" sketch:type="MSShapeGroup"></path>
            <path d="M111.008789,48.1103516 L26.5063019,48.1103516 C25.6777001,48.1103516 25.0063019,47.4384766 25.0063019,46.6103516 C25.0063019,45.7822266 25.6777001,45.1103516 26.5063019,45.1103516 L111.008789,45.1103516 C111.837402,45.1103516 112.508789,45.7822266 112.508789,46.6103516 C112.508789,47.4384766 111.837402,48.1103516 111.008789,48.1103516 L111.008789,48.1103516 Z" id="Shape" fill="#444445" sketch:type="MSShapeGroup"></path>
            <path d="M114.914993,47.0253906 L114.895996,47.0253906 C114.067902,47.0126953 113.406692,46.3310547 113.418899,45.5029297 C113.431595,44.6816406 114.100601,44.0253906 114.918503,44.0253906 L114.922394,44.0253906 C115.071793,44.0224609 117.754898,43.9169922 120.588898,40.4658203 C121.1138,39.8251953 122.060501,39.7314453 122.699692,40.2587891 C123.340301,40.7841797 123.43309,41.7294922 122.907196,42.3701172 C119.170395,46.9208984 115.259796,47.0253906 114.914993,47.0253906 L114.914993,47.0253906 Z" id="Shape" fill="#444445" sketch:type="MSShapeGroup"></path>
            <path d="M82.2562943,65.6582031 C81.7484971,65.6582031 81.2572938,65.4003906 80.9770966,64.9423828 L77.6903992,59.5859375 C77.3510971,59.0332031 77.4057999,58.3242187 77.8256989,57.8300781 C78.0038987,57.6210937 82.2543946,52.7011719 88.1708985,52.7011719 C92.8560029,52.7011719 97.3970032,50.163086 98.0214997,49.2304688 C98.1215974,48.4990235 98.748993,47.9355469 99.5077973,47.9355469 C100.336395,47.9355469 101.007797,48.6074219 101.007797,49.4355469 C101.007797,52.5439453 93.5390931,55.7011719 88.1708985,55.7011719 C84.8871995,55.7011719 82.1312943,57.8388672 80.8607941,59.0175781 L82.8407975,62.2441406 L116.598602,46.8925781 C117.354996,46.5498047 118.243195,46.883789 118.585007,47.6367187 C118.928192,48.3906249 118.594696,49.2802734 117.84079,49.6230468 L82.8764955,65.5234374 C82.6757965,65.6152344 82.4643936,65.6582031 82.2562943,65.6582031 L82.2562943,65.6582031 Z" id="Shape" fill="#444445" sketch:type="MSShapeGroup"></path>
            <path d="M84.3266983,60.9921875 C83.782196,60.9921875 83.2567978,60.6943359 82.9911957,60.1767578 C82.6128006,59.4394531 82.9037934,58.5351562 83.641098,58.1572266 L88.3740005,55.7294922 C89.1112976,55.3525391 90.0155944,55.6435547 90.3930969,56.3798828 C90.7714996,57.1171875 90.4804992,58.0214844 89.7431946,58.399414 L85.0102997,60.8271484 C84.7910004,60.9394531 84.5570984,60.9921875 84.3266983,60.9921875 L84.3266983,60.9921875 Z" id="Shape" fill="#444445" sketch:type="MSShapeGroup"></path>
            <path d="M87.8349991,51.9765625 C86.8256989,51.9765625 86.0551987,50.9931641 85.4237976,49.9921875 C84.9818954,49.2919922 85.1913986,48.3671875 85.8915939,47.9248047 C86.5082931,47.5351563 87.299797,47.6494141 87.782196,48.1621094 C88.8812942,47.5898438 90.4301986,47.5820313 91.1304016,47.6152344 C91.9579925,47.6523438 92.5986023,48.3535156 92.5614929,49.1806641 C92.5243988,50.006836 91.8311004,50.6523438 90.9975967,50.6123047 L90.9975967,50.6123047 C90.4580001,50.5878906 89.8080978,50.6425781 89.4291992,50.7294922 C89.2450943,51.4013672 88.7602997,51.7753906 88.299797,51.9091797 C88.1391983,51.9550781 87.9843979,51.9765625 87.8349991,51.9765625 L87.8349991,51.9765625 Z" id="Shape" fill="#444445" sketch:type="MSShapeGroup"></path>
            <path d="M70.7279968,76.6884766 C69.9810028,76.6884766 68.5565948,76 67.3017959,75.0273438 C64.7606964,73.5576172 63.392601,72.0517579 63.1317977,70.4472657 C62.9994964,69.6347657 63.0927962,68.4150391 64.2860946,67.2207032 C64.860794,66.6464844 65.5326995,66.2470704 66.0727996,65.9257813 C66.1937942,65.8535157 66.3437957,65.7646485 66.4794997,65.678711 C66.4551009,65.6523438 66.4281997,65.6250001 66.3988951,65.5957032 C66.0712965,65.2685548 65.6415938,64.9218751 65.1869963,64.5556641 C63.7982939,63.4355469 62.0702971,62.0419922 62.1855009,60.0273438 C62.2686003,58.5751954 63.304199,57.2382813 65.3520964,55.9423829 C66.2798003,55.3544923 66.6981963,54.9414063 66.8812941,54.7138673 C66.6601942,54.591797 66.3130034,54.4609376 65.9975966,54.3867189 L64.2798003,54.3867189 C63.4511946,54.3867189 62.7798003,53.7148439 62.7798003,52.8867189 L62.7798003,49.107422 C62.7798003,48.279297 63.4511946,47.607422 64.2798003,47.607422 C65.1083983,47.607422 65.7798003,48.279297 65.7798003,49.107422 L65.7798003,51.3867189 L66.1542968,51.3867189 C66.2450942,51.3867189 66.3358993,51.3945314 66.4257964,51.411133 C66.9468001,51.5068361 69.5653991,52.0878908 69.9594954,54.1220705 C70.0145949,54.4072267 70.018997,54.6826174 69.9823988,54.9472658 C70.3275984,54.5253908 70.5561979,54.1562502 70.5570982,53.9003908 C70.5580977,53.692383 70.3046949,53.4082033 70.1542967,53.2578127 C69.8725966,52.9755861 69.7143934,52.5947268 69.7143934,52.1962893 L69.7143934,49.1074221 C69.7143934,48.2792971 70.3856962,47.6074221 71.2143934,47.6074221 C72.0429991,47.6074221 72.7143934,48.2792971 72.7143934,49.1074221 L72.7143934,51.6289065 C73.2768934,52.3447268 73.5600965,53.1103518 73.5570982,53.9111331 C73.5503004,55.7500003 72.0873945,57.19043 70.393997,58.8583987 L69.7602995,59.4853518 C69.5346983,59.7109377 69.331497,59.9062502 69.1493986,60.0751956 C69.4848936,60.3544925 69.8900984,60.7128909 70.3520964,61.174805 C71.2260969,62.0488284 72.2275008,63.2382816 72.2211989,64.6953128 C72.213394,66.4062503 70.9468001,67.6494144 69.0302962,69.5322269 C68.7270964,69.8300785 68.4022978,70.1494144 68.0580977,70.4931644 C67.7201994,70.831055 67.7593001,70.9970706 67.7826994,71.0957035 C67.8871992,71.5390629 68.3730009,72.0537113 68.9468,72.5126957 C69.2514951,72.6845707 69.5888975,72.8642582 69.9618986,73.0507816 C71.381294,73.7607425 72.318794,74.2294925 72.1376951,75.4140628 C72.0395963,76.0576175 71.5248945,76.5732425 70.8822935,76.6777347 C70.8349991,76.6845703 70.7831955,76.6884766 70.7279968,76.6884766 L70.7279968,76.6884766 Z M65.642601,59.4853516 C65.214798,59.9189454 65.1830978,60.1591797 65.1806946,60.1992188 C65.1669998,60.4355469 65.4580002,60.7949219 65.8417969,61.1669922 C65.6571961,60.9121094 65.5282974,60.6074219 65.5131989,60.2177734 C65.5023956,59.9404297 65.5513,59.7011719 65.642601,59.4853516 L65.642601,59.4853516 Z" id="Shape" fill="#444445" sketch:type="MSShapeGroup"></path>
            <path d="M22.2456017,48.1103516 C22.1543007,48.1103516 22.0615006,48.1025391 21.9687996,48.084961 C21.7831993,48.0498048 20.1240006,47.7128907 18.9966011,46.5869141 C18.4105988,46.0009766 18.4096985,45.0517579 18.9950981,44.4658203 C19.5811004,43.8779297 20.5307999,43.8798828 21.1166992,44.4638672 C21.5166015,44.8632813 22.2896004,45.0898438 22.5293007,45.1376953 C23.3378983,45.2988281 23.8695984,46.0839844 23.7128983,46.8945312 C23.5741997,47.6113281 22.9496994,48.1103516 22.2456017,48.1103516 L22.2456017,48.1103516 Z" id="Shape" fill="#444445" sketch:type="MSShapeGroup"></path>
            <path d="M70.3721008,84.4111328 C70.1958008,84.4111328 70.0170974,84.3808594 69.8427963,84.3144531 C66.3480987,82.9970703 64.6151962,81.5527343 64.3900985,79.7666015 C64.2240981,78.4511718 64.9897002,77.4062499 65.6962966,76.9101562 C65.8744964,76.7851562 66.0780944,76.7011718 66.2924956,76.6621093 C68.1327971,76.3310546 68.9580001,75.9755859 69.3090972,75.7685546 C68.8344955,75.2783202 67.5966949,74.5273437 66.4365005,74.0546874 C65.6698989,73.7412108 65.3013,72.8671874 65.6132965,72.0996093 C65.9253006,71.3330077 66.7987976,70.9628905 67.5658951,71.2753905 C69.1221008,71.9062499 72.7123947,73.6435546 72.453598,76.1249999 C72.2382965,78.1914061 69.7509994,79.0341796 67.4038009,79.5048827 C67.5570983,79.7128905 68.2221984,80.4980468 70.9013976,81.5078124 C71.6762999,81.7998046 72.0678939,82.665039 71.7758941,83.4404296 C71.5492935,84.0410156 70.9779968,84.4111328 70.3721008,84.4111328 L70.3721008,84.4111328 Z" id="Shape" fill="#444445" sketch:type="MSShapeGroup"></path>
            <path d="M19.1811981,34.1660156 C18.4678001,34.1660156 17.8368988,33.6582031 17.7080002,32.9316406 C17.6811981,32.7792968 17.0708008,29.1640625 19.2724991,26.5380859 C20.6811981,24.8574218 22.8339996,24.0058593 25.6708985,24.0058593 C26.4995003,24.0058593 27.1708985,24.6777343 27.1708985,25.5058593 C27.1708985,26.3339843 26.4995003,27.0058593 25.6708985,27.0058593 C23.771,27.0058593 22.3955002,27.4921874 21.5825005,28.4521484 C20.2778016,29.9921875 20.6591988,32.3916015 20.6631012,32.4160156 C20.7988014,33.2294922 20.2519989,34.0048828 19.4384995,34.1445312 C19.3521004,34.1591797 19.2661018,34.1660156 19.1811981,34.1660156 L19.1811981,34.1660156 Z" id="Shape" fill="#444445" sketch:type="MSShapeGroup"></path>
            <path d="M34.535202,27.0058594 L30.0762024,27.0058594 C29.2475967,27.0058594 28.5762024,26.3339844 28.5762024,25.5058594 C28.5762024,24.6777344 29.2475967,24.0058594 30.0762024,24.0058594 L34.535202,24.0058594 C35.3638,24.0058594 36.035202,24.6777344 36.035202,25.5058594 C36.035202,26.3339844 35.3638,27.0058594 34.535202,27.0058594 L34.535202,27.0058594 Z" id="Shape" fill="#444445" sketch:type="MSShapeGroup"></path>
            <path d="M91.2720032,27.0058594 L39.2505035,27.0058594 C38.4218978,27.0058594 37.7505035,26.3339844 37.7505035,25.5058594 C37.7505035,24.6777344 38.4218978,24.0058594 39.2505035,24.0058594 L91.2720031,24.0058594 C92.1006011,24.0058594 92.7720031,24.6777344 92.7720031,25.5058594 C92.7720031,26.3339844 92.1006012,27.0058594 91.2720032,27.0058594 L91.2720032,27.0058594 Z" id="Shape" fill="#444445" sketch:type="MSShapeGroup"></path>
        </g>
    </g>
</svg>