<?xml version="1.0" encoding="UTF-8" standalone="no"?>
<svg width="114px" height="77px" viewBox="0 0 114 77" version="1.1" xmlns="http://www.w3.org/2000/svg" xmlns:xlink="http://www.w3.org/1999/xlink" xmlns:sketch="http://www.bohemiancoding.com/sketch/ns">
    <!-- Generator: Sketch 3.2.2 (9983) - http://www.bohemiancoding.com/sketch -->
    <title>Untitled 7</title>
    <desc>Created with Sketch.</desc>
    <defs></defs>
    <g id="Page-1" stroke="none" stroke-width="1" fill="none" fill-rule="evenodd" sketch:type="MSPage">
        <g id="Group" sketch:type="MSLayerGroup">
            <path d="M109.245102,76.5195312 L4.9618988,76.5195312 C2.7700005,76.5195312 0.9868011,74.7363281 0.9868011,72.5449218 L0.9868011,67.4667968 C0.9868011,66.6386718 1.6581993,65.9667968 2.4868011,65.9667968 L75.8754959,65.9667968 C76.7040939,65.9667968 77.3754959,66.6386718 77.3754959,67.4667968 C77.3754959,68.2949218 76.7040939,68.9667968 75.8754959,68.9667968 L3.9868011,68.9667968 L3.9868011,72.5449218 C3.9868011,73.0820312 4.4243011,73.5195312 4.9618988,73.5195312 L109.245102,73.5195312 C109.7827,73.5195312 110.2202,73.0820312 110.2202,72.5449218 L110.2202,68.9667968 L81.202095,68.9667968 C80.373497,68.9667968 79.702095,68.2949218 79.702095,67.4667968 C79.702095,66.6386718 80.373497,65.9667968 81.202095,65.9667968 L111.7202,65.9667968 C112.548798,65.9667968 113.2202,66.6386718 113.2202,67.4667968 L113.2202,72.5449218 C113.2202,74.7363281 111.436996,76.5195312 109.245102,76.5195312 L109.245102,76.5195312 Z" id="Shape" fill="#444445" sketch:type="MSShapeGroup"></path>
            <path d="M67.2006989,70.9667969 L46.0063019,70.9667969 C45.1776962,70.9667969 44.5063019,70.2949219 44.5063019,69.4667969 C44.5063019,68.6386719 45.1776962,67.9667969 46.0063019,67.9667969 L67.2006989,67.9667969 C68.0292969,67.9667969 68.7006989,68.6386719 68.7006989,69.4667969 C68.7006989,70.2949219 68.0292969,70.9667969 67.2006989,70.9667969 L67.2006989,70.9667969 Z" id="Shape" fill="#444445" sketch:type="MSShapeGroup"></path>
            <path d="M100.452103,68.7705078 L83.6952973,68.7705078 C82.8666993,68.7705078 82.1952973,68.0986328 82.1952973,67.2705078 C82.1952973,66.4425049 82.8666993,65.7705078 83.6952973,65.7705078 L100.452103,65.7705078 C101.664093,65.7705078 102.650391,64.7841797 102.650391,63.5722656 L102.650391,5.9404297 C102.650391,4.7285156 101.664093,3.7423096 100.452103,3.7423096 L13.1450005,3.7423096 C11.9331017,3.7423096 10.9468003,4.7285157 10.9468003,5.9404297 L10.9468003,63.5722656 C10.9468003,64.7841797 11.9331017,65.7705078 13.1450005,65.7705078 L74.6952973,65.7705078 C75.5238953,65.7705078 76.1952973,66.4425049 76.1952973,67.2705078 C76.1952973,68.0986328 75.5238953,68.7705078 74.6952973,68.7705078 L13.1450005,68.7705078 C10.278801,68.7705078 7.9468003,66.4384766 7.9468003,63.5722656 L7.9468003,5.9404297 C7.9468003,3.0742188 10.278801,0.7423096 13.1450005,0.7423096 L100.452099,0.7423096 C103.318386,0.7423096 105.650387,3.0742188 105.650387,5.9404297 L105.650387,63.5722656 C105.650391,66.4384766 103.31839,68.7705078 100.452103,68.7705078 L100.452103,68.7705078 Z" id="Shape" fill="#444445" sketch:type="MSShapeGroup"></path>
            <path d="M48.4624023,63.4863281 L38.1406021,63.4863281 C37.3119964,63.4863281 36.6406021,62.8144531 36.6406021,61.9863281 C36.6406021,61.1582031 37.3119964,60.4863281 38.1406021,60.4863281 L48.4624023,60.4863281 C49.2910003,60.4863281 49.9624023,61.1582031 49.9624023,61.9863281 C49.9624023,62.8144531 49.2910004,63.4863281 48.4624023,63.4863281 L48.4624023,63.4863281 Z" id="Shape" fill="#444445" sketch:type="MSShapeGroup"></path>
            <path d="M98.7393036,63.4863281 L53.5355988,63.4863281 C52.7070008,63.4863281 52.0355988,62.8144531 52.0355988,61.9863281 C52.0355988,61.1582031 52.7070008,60.4863281 53.5355988,60.4863281 L97.2393036,60.4863281 L97.2393036,9.1044922 L16.3188019,9.1044922 L16.3188019,60.4863281 L32.5425034,60.4863281 C33.3711014,60.4863281 34.0425034,61.1582031 34.0425034,61.9863281 C34.0425034,62.8144531 33.3711014,63.4863281 32.5425034,63.4863281 L14.8188019,63.4863281 C13.9902001,63.4863281 13.3188019,62.8144531 13.3188019,61.9863281 L13.3188019,7.6044922 C13.3188019,6.7763672 13.9902001,6.1044922 14.8188019,6.1044922 L98.7393036,6.1044922 C99.5679016,6.1044922 100.239304,6.7763672 100.239304,7.6044922 L100.239304,61.9863281 C100.239304,62.8144531 99.5679016,63.4863281 98.7393036,63.4863281 L98.7393036,63.4863281 Z" id="Shape" fill="#444445" sketch:type="MSShapeGroup"></path>
            <path d="M19.589798,13.8916016 C19.1996994,13.8916016 18.8100968,13.7314454 18.5298004,13.4521485 C18.25,13.1718751 18.089798,12.7822266 18.089798,12.3916016 C18.089798,12.0019532 18.25,11.6113282 18.5298004,11.3320313 C19.0795975,10.7716065 20.089798,10.7716065 20.6499023,11.3320313 C20.9297027,11.6113282 21.0897979,12.0019532 21.0897979,12.3916016 C21.0897979,12.7822266 20.9297027,13.171875 20.6499023,13.4521485 C20.3695984,13.7314453 19.9800034,13.8916016 19.589798,13.8916016 L19.589798,13.8916016 Z" id="Shape" fill="#444445" sketch:type="MSShapeGroup"></path>
            <path d="M23.8798981,13.8916016 C23.4800034,13.8916016 23.0996018,13.7314454 22.8198014,13.4521485 C22.540001,13.1718751 22.3798981,12.7822266 22.3798981,12.3916016 C22.3798981,12.0019532 22.5400009,11.6113282 22.8198014,11.3320313 C23.3695985,10.7716065 24.3798981,10.7716065 24.9399033,11.3320313 C25.2197037,11.6113282 25.3798981,12.0019532 25.3798981,12.3916016 C25.3798981,12.7822266 25.2197037,13.171875 24.9399033,13.4521485 C24.6596985,13.7314453 24.2699966,13.8916016 23.8798981,13.8916016 L23.8798981,13.8916016 Z" id="Shape" fill="#444445" sketch:type="MSShapeGroup"></path>
            <path d="M28.169899,13.8916016 C27.7699967,13.8916016 27.3896027,13.7314454 27.1099014,13.4521485 C26.8295974,13.1718751 26.669899,12.7822266 26.669899,12.3916016 C26.669899,12.0019532 26.8295975,11.6113282 27.0996018,11.3320313 C27.6596985,10.7716065 28.669899,10.7716065 29.2300034,11.3320313 C29.5098038,11.6113282 29.669899,12.0019532 29.669899,12.3916016 C29.669899,12.7822266 29.5098038,13.171875 29.2300034,13.4521485 C28.9496994,13.7314453 28.5600967,13.8916016 28.169899,13.8916016 L28.169899,13.8916016 Z" id="Shape" fill="#444445" sketch:type="MSShapeGroup"></path>
            <path d="M74.9242935,21.3251953 L56.6078949,21.3251953 C56.0556946,21.3251953 55.6078949,20.8779297 55.6078949,20.3251953 L55.6078949,17.6494141 L18.0737,17.6494141 C17.5214997,17.6494141 17.0737,17.2021485 17.0737,16.6494141 C17.0737,16.0966797 17.5214997,15.6494141 18.0737,15.6494141 L56.6078949,15.6494141 C57.1601944,15.6494141 57.6078949,16.0966797 57.6078949,16.6494141 L57.6078949,19.3251953 L73.9242935,19.3251953 L73.9242935,16.6494141 C73.9242935,16.0966797 74.3720932,15.6494141 74.9242935,15.6494141 L94.9135895,15.6494141 C95.4657898,15.6494141 95.9135895,16.0966797 95.9135895,16.6494141 C95.9135895,17.2021485 95.4657898,17.6494141 94.9135895,17.6494141 L75.9242935,17.6494141 L75.9242935,20.3251953 C75.9242935,20.8779297 75.4766006,21.3251953 74.9242935,21.3251953 L74.9242935,21.3251953 Z" id="Shape" fill="#444445" sketch:type="MSShapeGroup"></path>
            <path d="M34.2763977,21.5 L19.0737,21.5 C18.5317002,21.5 18.0927964,21.0605469 18.0927964,20.5185547 L18.0927964,17.5849609 C18.0927964,17.0429687 18.5317002,16.6035156 19.0737,16.6035156 C19.6156998,16.6035156 20.0547028,17.0429687 20.0547028,17.5849609 L20.0547028,19.5371093 L33.2954026,19.5371093 L33.2954026,17.4560546 C33.2954026,16.9140624 33.734398,16.4746093 34.2763978,16.4746093 C34.8183976,16.4746093 35.2573014,16.9140624 35.2573014,17.4560546 L35.2573014,20.5185546 C35.2573013,21.0605469 34.8183975,21.5 34.2763977,21.5 L34.2763977,21.5 Z" id="Shape" fill="#444445" sketch:type="MSShapeGroup"></path>
            <path d="M93.3173981,21.5 L78.1147003,21.5 C77.5727997,21.5 77.1337967,21.0605469 77.1337967,20.5185547 L77.1337967,17.5849609 C77.1337967,17.0429687 77.5727997,16.6035156 78.1147003,16.6035156 C78.6567001,16.6035156 79.0956955,17.0429687 79.0956955,17.5849609 L79.0956955,19.5371093 L92.3363953,19.5371093 L92.3363953,17.4560546 C92.3363953,16.9140624 92.7753907,16.4746093 93.3173981,16.4746093 C93.8593903,16.4746093 94.2982941,16.9140624 94.2982941,17.4560546 L94.2982941,20.5185546 C94.2982941,21.0605469 93.8593903,21.5 93.3173981,21.5 L93.3173981,21.5 Z" id="Shape" fill="#444445" sketch:type="MSShapeGroup"></path>
            <path d="M53.4785004,21.5 L37.2763977,21.5 C36.7343979,21.5 36.2954025,21.0605469 36.2954025,20.5185547 L36.2954025,17.5849609 C36.2954025,17.0429687 36.7343979,16.6035156 37.2763977,16.6035156 C37.8183975,16.6035156 38.2573013,17.0429687 38.2573013,17.5849609 L38.2573013,19.5371093 L52.4975967,19.5371093 L52.4975967,17.4560546 C52.4975967,16.9140624 52.9365005,16.4746093 53.4785003,16.4746093 C54.0205001,16.4746093 54.4594955,16.9140624 54.4594955,17.4560546 L54.4594955,20.5185546 C54.4594955,21.0605469 54.0205002,21.5 53.4785004,21.5 L53.4785004,21.5 Z" id="Shape" fill="#444445" sketch:type="MSShapeGroup"></path>
            <path d="M93.3666992,13.3652344 L33.4555969,13.3652344 C32.9185028,13.3652344 32.4829025,12.9298096 32.4829025,12.3925782 C32.4829025,11.8554688 32.9185028,11.419922 33.4555969,11.419922 L93.3666992,11.419922 C93.9037933,11.419922 94.3394012,11.8554689 94.3394012,12.3925782 C94.3394012,12.9298096 93.9037933,13.3652344 93.3666992,13.3652344 L93.3666992,13.3652344 Z" id="Shape" fill="#444445" sketch:type="MSShapeGroup"></path>
            <path d="M59.5830002,52.3232422 L19.5888977,52.3232422 C19.0518036,52.3232422 18.6166992,51.8876953 18.6166992,51.350708 C18.6166992,50.8134766 19.0518036,50.3779297 19.5888977,50.3779297 L59.5830002,50.3779297 C60.1200943,50.3779297 60.5551987,50.8134766 60.5551987,51.350708 C60.5551987,51.8876953 60.1200943,52.3232422 59.5830002,52.3232422 L59.5830002,52.3232422 Z" id="Shape" fill="#444445" sketch:type="MSShapeGroup"></path>
            <path d="M42.892601,57.0830078 L19.5888977,57.0830078 C19.0518036,57.0830078 18.6162033,56.6474609 18.6162033,56.1103516 C18.6162033,55.5732423 19.0518036,55.1376954 19.5888977,55.1376954 L42.892601,55.1376954 C43.4297027,55.1376954 43.8651962,55.5732423 43.8651962,56.1103516 C43.8651962,56.6474609 43.4297028,57.0830078 42.892601,57.0830078 L42.892601,57.0830078 Z" id="Shape" fill="#444445" sketch:type="MSShapeGroup"></path>
            <path d="M84.5995941,44.0039062 C84.0473938,44.0039062 83.5995941,43.5566406 83.5995941,43.0039062 L83.5995941,36.5683593 C83.5995941,34.9062499 82.2471008,33.5537109 80.5849991,33.5537109 L51.2064972,33.5537109 C49.5444031,33.5537109 48.1919022,34.90625 48.1919022,36.5683593 L48.1919022,42.0039062 C48.1919022,42.5566406 47.7441025,43.0039062 47.1919022,43.0039062 C46.6396027,43.0039062 46.1919022,42.5566406 46.1919022,42.0039062 L46.1919022,36.5683593 C46.1919022,33.8037109 48.4413987,31.5537109 51.2064972,31.5537109 L80.5849991,31.5537109 C83.3500977,31.5537109 85.5995941,33.8037109 85.5995941,36.5683593 L85.5995941,43.0039062 C85.5995941,43.5566406 85.1519012,44.0039062 84.5995941,44.0039062 L84.5995941,44.0039062 Z" id="Shape" fill="#4990E2" sketch:type="MSShapeGroup"></path>
            <path d="M59.1445007,43.0039062 C58.5923004,43.0039062 58.1445007,42.5566406 58.1445007,42.0039062 L58.1445007,36.7373046 L52.1221008,36.7373046 L52.1221008,42.0039062 C52.1221008,42.5566406 51.6743011,43.0039062 51.1221008,43.0039062 C50.5698013,43.0039062 50.1221008,42.5566406 50.1221008,42.0039062 L50.1221008,35.7373046 C50.1221008,35.1845702 50.5698013,34.7373046 51.1221008,34.7373046 L59.1445007,34.7373046 C59.6968002,34.7373046 60.1445007,35.1845702 60.1445007,35.7373046 L60.1445007,42.0039062 C60.1445007,42.5566406 59.6968002,43.0039062 59.1445007,43.0039062 L59.1445007,43.0039062 Z" id="Shape" fill="#D0011B" sketch:type="MSShapeGroup"></path>
            <path d="M94.9135895,44.0039062 L19.5888977,44.0039062 C19.0365982,44.0039062 18.5888977,43.5566406 18.5888977,43.0039062 C18.5888977,42.4511718 19.0365982,42.0039062 19.5888977,42.0039062 L94.9135895,42.0039062 C95.4657898,42.0039062 95.9135895,42.4511718 95.9135895,43.0039062 C95.9135895,43.5566406 95.4657898,44.0039062 94.9135895,44.0039062 L94.9135895,44.0039062 Z" id="Shape" fill="#4990E2" sketch:type="MSShapeGroup"></path>
        </g>
    </g>
</svg>