<?xml version="1.0" encoding="UTF-8" standalone="no"?>
<svg width="148px" height="107px" viewBox="0 0 148 107" version="1.1" xmlns="http://www.w3.org/2000/svg" xmlns:xlink="http://www.w3.org/1999/xlink" xmlns:sketch="http://www.bohemiancoding.com/sketch/ns">
    <!-- Generator: Sketch 3.2.2 (9983) - http://www.bohemiancoding.com/sketch -->
    <title>Untitled 2</title>
    <desc>Created with Sketch.</desc>
    <defs></defs>
    <g id="Page-1" stroke="none" stroke-width="1" fill="none" fill-rule="evenodd" sketch:type="MSPage">
        <g id="Group" sketch:type="MSLayerGroup" transform="translate(3.000000, 2.000000)">
            <g stroke="#EAE5E1" fill="#F7F4F2" sketch:type="MSShapeGroup">
                <path d="M141.09332,65.75839 C141.09332,78.13128 131.05999,88.15298 118.69876,88.15298 L61.75781,88.15298 C49.39671,88.15298 39.36325,78.13128 39.36325,65.75839 C39.36325,53.86276 48.66327,44.12036 60.38441,43.41037 C65.24969,31.72424 76.77291,23.50668 90.22821,23.50668 C103.68365,23.50668 115.20688,31.72424 120.0723,43.41037 C131.7933,44.12036 141.09332,53.86276 141.09332,65.75839 L141.09332,65.75839 Z" id="Shape" stroke-width="2"></path>
                <g>
                    <path d="M32.41359,79.72409 C28.16797,83.96973 9.76183,95.49234 5.5162,91.2467 C1.27056,87.00106 12.79318,68.59494 17.03881,64.3493 C21.28445,60.10366 28.16798,60.10366 32.4136,64.3493 C36.65923,68.59494 36.65923,75.47845 32.41359,79.72409 L32.41359,79.72409 Z" id="Shape" stroke-width="2"></path>
                    <path d="M26.1825,54.96954 C23.87592,59.12747 4.99234,68.63684 0.65571,64.16223 C-1.66051,61.77231 6.11617,44.24539 18.27659,45.79974 C25.03038,46.66302 27.30156,52.95227 26.1825,54.96954 L26.1825,54.96954 Z" id="Shape" stroke-width="2"></path>
                    <path d="M41.79337,70.58041 C37.63544,72.88699 28.12607,91.77057 32.60068,96.1072 C34.99059,98.42342 52.51752,90.64675 50.96315,78.48632 C50.09987,71.73251 43.81062,69.46133 41.79337,70.58041 L41.79337,70.58041 Z" id="Shape" stroke-width="2"></path>
                    <path d="M65.03917,66.10599 C46.44325,84.70188 35.86668,79.88501 26.37228,70.39063 C16.8779,60.89621 12.06101,50.31965 30.65693,31.72373 C49.25283,13.12781 84.21966,-6.44555 93.71404,3.04886 C103.20845,12.54324 83.63509,47.51007 65.03917,66.10599 L65.03917,66.10599 Z" id="Shape" stroke-width="2"></path>
                    <circle id="Oval" stroke-width="5.00002276" transform="translate(48.522467, 48.243235) rotate(-45.000000) translate(-48.522467, -48.243235) " cx="48.5224671" cy="48.2432349" r="9.17961179"></circle>
                    <path d="M71.99538,24.76752 C76.73662,29.50876 81.64891,33.74237 86.58135,37.41693 C94.88157,22.82974 99.25945,8.59424 93.71406,3.04883 C88.16867,-2.49655 73.93313,1.88132 59.34597,10.18155 C63.02052,15.11398 67.25414,20.02628 71.99538,24.76752 L71.99538,24.76752 Z" id="Shape" stroke-width="2"></path>
                    <path d="M30.85306,65.90985 L17.40668,79.35623" id="Shape" stroke-width="2"></path>
                </g>
            </g>
            <g transform="translate(33.000000, 21.000000)" sketch:type="MSShapeGroup">
                <path d="M108.84193,59.73926 C108.84193,69.25687 101.12399,76.96585 91.61534,76.96585 L47.81462,76.96585 C38.30608,76.96585 30.58803,69.25687 30.58803,59.73926 C30.58803,50.58878 37.7419,43.09464 46.75817,42.54846 C50.50069,33.55914 59.36471,27.23794 69.71493,27.23794 C80.06527,27.23794 88.9293,33.55914 92.67192,42.54846 C101.68806,43.09464 108.84193,50.58878 108.84193,59.73926 L108.84193,59.73926 Z" id="Shape" opacity="0.3" fill="#493A60"></path>
                <path d="M108.84193,50.78574 C108.84193,60.30335 101.12399,68.01233 91.61534,68.01233 L47.81462,68.01233 C38.30608,68.01233 30.58803,60.30335 30.58803,50.78574 C30.58803,41.63526 37.7419,34.14109 46.75817,33.59494 C50.50069,24.60562 59.36471,18.28442 69.71493,18.28442 C80.06527,18.28442 88.9293,24.60562 92.67192,33.59494 C101.68806,34.14108 108.84193,41.63525 108.84193,50.78574 L108.84193,50.78574 Z" id="Shape" stroke="#493A60" stroke-width="2" fill="#E2F0F7"></path>
                <path d="M69.11806,33.82358 C69.13631,33.78748 69.15489,33.75128 69.17304,33.71518 C70.53269,31.00729 71.67483,28.36676 72.53368,25.88306 C72.57204,25.77234 72.60712,25.66361 72.64429,25.55347 C72.80823,25.06787 72.96135,24.58878 73.10245,24.11658 C73.1454,23.97327 73.18672,23.83103 73.22748,23.68906 C73.35372,23.24842 73.46837,22.81528 73.57331,22.3881 C73.60871,22.24448 73.64565,22.10008 73.67844,21.95808 C73.78052,21.51625 73.86797,21.08436 73.94545,20.6591 C73.96523,20.55037 73.98982,20.43861 74.00807,20.33101 C74.186,19.27574 74.28482,18.27574 74.29574,17.34169 C74.29727,17.22038 74.28918,17.10655 74.28765,16.98753 C74.28327,16.65702 74.27169,16.33223 74.24393,16.01976 C74.2307,15.86903 74.20938,15.72478 74.19059,15.57841 C74.15583,15.30946 74.11343,15.04676 74.05944,14.79307 C74.02796,14.64494 73.99299,14.49995 73.95473,14.35719 C73.8908,14.11775 73.81505,13.88804 73.73177,13.66438 C73.68291,13.53285 73.63581,13.40016 73.58007,13.27424 C73.47886,13.04548 73.36037,12.83158 73.23655,12.62208 C73.17764,12.52244 73.12627,12.41654 73.06211,12.32139 C72.86396,12.02751 72.6458,11.75059 72.39638,11.50114 C72.14685,11.25166 71.87001,11.03358 71.57601,10.83537 C71.48092,10.77119 71.37502,10.71983 71.27544,10.66093 C71.06581,10.53703 70.85202,10.41856 70.62317,10.31739 C70.49725,10.26173 70.36456,10.21455 70.23308,10.16569 C70.00936,10.08247 69.77973,10.00672 69.54025,9.94267 C69.39752,9.90455 69.25259,9.86946 69.10438,9.83796 C68.8507,9.7841 68.58807,9.74162 68.31898,9.70689 C68.17274,9.68803 68.02847,9.66676 67.87763,9.65348 C67.56527,9.62577 67.24044,9.61417 66.90993,9.60987 C66.7909,9.60834 66.67713,9.60026 66.5558,9.60172 C65.62198,9.61261 64.62225,9.71134 63.56732,9.88935 C63.45868,9.90769 63.34578,9.93247 63.23593,9.95252 C62.81154,10.02988 62.38058,10.1171 61.93968,10.21897 C61.79706,10.25199 61.65202,10.28898 61.50786,10.3245 C61.08182,10.42921 60.64977,10.54352 60.21019,10.6695 C60.06711,10.71055 59.92394,10.75211 59.77945,10.79535 C59.30806,10.93628 58.82977,11.08917 58.34505,11.25281 C58.23444,11.29019 58.12503,11.32544 58.01366,11.36396 C55.53133,12.22248 52.89226,13.36402 50.18599,14.72263 C50.14653,14.74247 50.10696,14.76285 50.0674,14.78275 C49.4243,15.10685 48.77837,15.44288 48.12937,15.79035 C48.08346,15.81483 48.03777,15.8393 47.99198,15.86396 C47.31751,16.22654 46.64141,16.59986 45.96345,16.98554 C45.96203,16.9863 45.96072,16.98707 45.9593,16.98786 L45.9593,16.98789 C37.96844,21.53477 29.84065,27.60895 23.89079,33.55878 C19.70933,37.74027 17.07596,41.39157 15.61248,44.65216 C15.21912,44.53946 14.81046,44.44305 14.36748,44.38644 C5.01338,43.19076 -0.96872,56.67303 0.81291,58.51144 C3.00068,60.76873 10.00088,58.39956 15.06106,55.59918 C15.25442,56.08517 15.47366,56.56302 15.71958,57.03277 C14.88761,57.43109 14.10462,57.966 13.4154,58.65533 C10.14941,61.9212 1.28594,76.0798 4.55181,79.34561 C7.81768,82.61148 21.97623,73.74795 25.2421,70.48208 C25.93143,69.79275 26.46633,69.00982 26.8647,68.17785 C27.33446,68.42382 27.8123,68.64306 28.29823,68.83636 C25.49785,73.89648 23.12875,80.89675 25.38592,83.08447 C27.22439,84.86621 40.70661,78.88412 39.5109,69.52997 C39.45429,69.08704 39.35788,68.67838 39.24532,68.28507 C42.50583,66.82151 46.1572,64.18818 50.33864,60.0066 C56.79509,53.55021 63.39755,44.52985 68.0352,35.90223 C68.05859,35.85862 68.08188,35.81519 68.10515,35.77165 C68.45453,35.11929 68.79247,34.46997 69.11806,33.82358 L69.11806,33.82358 Z" id="Shape" opacity="0.3" fill="#493A60"></path>
                <g stroke="#493A60">
                    <path d="M25.24214,61.52856 C21.97627,64.79443 7.8177,73.65799 4.55183,70.39212 C1.28596,67.12625 10.1495,52.96768 13.41537,49.70181 C16.68125,46.43594 21.97627,46.43594 25.24214,49.70181 C28.50801,52.96768 28.50801,58.2627 25.24214,61.52856 L25.24214,61.52856 Z" id="Shape" stroke-width="2" fill="#FFC522"></path>
                    <path d="M20.44899,42.4866 C18.6747,45.68499 4.14886,52.99991 0.81299,49.55789 C-0.96872,47.71951 5.01335,34.23724 14.36751,35.43292 C19.56274,36.09698 21.30981,40.93488 20.44899,42.4866 L20.44899,42.4866 Z" id="Shape" stroke-width="2" fill="#93C94C"></path>
                    <path d="M32.45735,54.49496 C29.25894,56.26925 21.94404,70.79507 25.38605,74.13095 C27.22444,75.91266 40.70671,69.9306 39.51103,60.57645 C38.84697,55.3812 34.00909,53.63416 32.45735,54.49496 L32.45735,54.49496 Z" id="Shape" stroke-width="2" fill="#93C94C"></path>
                    <path d="M50.33875,51.0531 C36.0342,65.35763 27.89837,61.65234 20.59499,54.34897 C13.29161,47.0456 9.58632,38.90976 23.89087,24.60523 C38.19542,10.30066 65.09296,-4.75576 72.39635,2.54761 C79.69972,9.85098 64.6433,36.74854 50.33875,51.0531 L50.33875,51.0531 Z" id="Shape" stroke-width="2" fill="#E2F0F7"></path>
                    <circle id="Oval" stroke-width="5.00002276" fill="#4B9DEF" transform="translate(37.634149, 37.312667) rotate(-45.000000) translate(-37.634149, -37.312667) " cx="37.6341494" cy="37.3126668" r="7.06124214"></circle>
                    <path d="M55.68967,19.25427 C59.33678,22.90136 63.11547,26.15802 66.90964,28.98459 C73.29442,17.7637 76.66204,6.81329 72.39635,2.54761 C68.13065,-1.71808 57.18026,1.64951 45.95935,8.0343 C48.78593,11.82849 52.04256,15.60718 55.68967,19.25427 L55.68967,19.25427 Z" id="Shape" stroke-width="2" fill="#E52E44"></path>
                    <path d="M24.04173,50.90222 L13.69836,61.24557" id="Shape" stroke-width="2" fill="#E52E44"></path>
                </g>
                <circle id="Oval" stroke="#493A60" stroke-width="2" fill="#E2F0F7" cx="63.22829" cy="43.33237" r="8.81359"></circle>
            </g>
        </g>
    </g>
</svg>
