<?xml version="1.0" encoding="UTF-8" standalone="no"?>
<svg width="84px" height="108px" viewBox="0 0 84 108" version="1.1" xmlns="http://www.w3.org/2000/svg" xmlns:xlink="http://www.w3.org/1999/xlink" xmlns:sketch="http://www.bohemiancoding.com/sketch/ns">
    <!-- Generator: Sketch 3.2.2 (9983) - http://www.bohemiancoding.com/sketch -->
    <title>Untitled 6</title>
    <desc>Created with Sketch.</desc>
    <defs></defs>
    <g id="Page-1" stroke="none" stroke-width="1" fill="none" fill-rule="evenodd" sketch:type="MSPage">
        <g id="Group" sketch:type="MSLayerGroup">
            <path d="M41.9198914,96.3291016 C18.8153992,96.3291016 0.0185852,77.5322266 0.0185852,54.428711 C0.0185852,46.1357422 2.4375,38.1201172 7.0106811,31.2460938 C9.0858764,28.1289063 11.5683898,25.3009034 14.3925781,22.8388672 C17.9354858,19.7480469 21.9354858,17.2939453 26.2812805,15.5439453 C31.2520141,13.5419922 36.5145874,12.5273437 41.9198913,12.5273437 C65.0253906,12.5273437 83.8231811,31.3242187 83.8231811,54.4287109 C83.8231812,77.5322266 65.0253906,96.3291016 41.9198914,96.3291016 L41.9198914,96.3291016 Z M41.9198914,15.5273438 C36.9003907,15.5273438 32.0155945,16.4697266 27.4013977,18.3271485 C23.3681946,19.9511719 19.6542969,22.2294923 16.3642883,25.0996094 C13.7421875,27.3867188 11.4354858,30.0136719 9.507782,32.9082032 C5.2637024,39.2882081 3.0185852,46.7294923 3.0185852,54.428711 C3.0185852,75.8789063 20.469696,93.3291016 41.9198914,93.3291016 C63.3710938,93.3291016 80.8231812,75.8789063 80.8231812,54.428711 C80.8231812,32.9785157 63.3710938,15.5273438 41.9198914,15.5273438 L41.9198914,15.5273438 Z" id="Shape" fill="#444445" sketch:type="MSShapeGroup"></path>
            <path d="M41.9198914,90.4238281 C22.0722962,90.4238281 5.9257813,74.2763672 5.9257813,54.4277343 C5.9257813,34.5800781 22.0722962,18.4326171 41.9198914,18.4326171 C61.7695008,18.4326171 77.9179993,34.580078 77.9179993,54.4277343 C77.9179993,74.2763672 61.7695007,90.4238281 41.9198914,90.4238281 L41.9198914,90.4238281 Z M41.9198914,21.4326172 C23.7265931,21.4326172 8.9257813,36.234375 8.9257813,54.4277344 C8.9257813,72.6220703 23.7265931,87.4238282 41.9198914,87.4238282 C60.1151734,87.4238282 74.9179993,72.6220704 74.9179993,54.4277344 C74.9179993,36.234375 60.1151733,21.4326172 41.9198914,21.4326172 L41.9198914,21.4326172 Z" id="Shape" fill="#444445" sketch:type="MSShapeGroup"></path>
            <path d="M41.9198914,38.7792969 C41.0917969,38.7792969 40.4198914,38.1074219 40.4198914,37.2792969 L40.4198914,26.6220703 C40.4198914,25.7939453 41.0917969,25.1220703 41.9198914,25.1220703 C42.748993,25.1220703 43.4198914,25.7939453 43.4198914,26.6220703 L43.4198914,37.2792969 C43.4198914,38.1074219 42.7489929,38.7792969 41.9198914,38.7792969 L41.9198914,38.7792969 Z" id="Shape" fill="#444445" sketch:type="MSShapeGroup"></path>
            <path d="M41.9198914,83.0126953 C41.0907898,83.0126953 40.4198914,82.3408203 40.4198914,81.5126953 L40.4198914,70.8564453 C40.4198914,70.0283203 41.0907898,69.3564453 41.9198914,69.3564453 C42.7479859,69.3564453 43.4198914,70.0283203 43.4198914,70.8564453 L43.4198914,81.5126953 C43.4198914,82.3408203 42.7479858,83.0126953 41.9198914,83.0126953 L41.9198914,83.0126953 Z" id="Shape" fill="#444445" sketch:type="MSShapeGroup"></path>
            <path d="M69.1620789,55.9287109 L58.5038758,55.9287109 C57.6757813,55.9287109 57.0038758,55.2568359 57.0038758,54.4287109 C57.0038758,53.600708 57.6757813,52.9287109 58.5038758,52.9287109 L69.1620789,52.9287109 C69.9901734,52.9287109 70.6620789,53.600708 70.6620789,54.4287109 C70.6620789,55.2568359 69.9901733,55.9287109 69.1620789,55.9287109 L69.1620789,55.9287109 Z" id="Shape" fill="#444445" sketch:type="MSShapeGroup"></path>
            <path d="M24.9276733,55.9287109 L14.2714843,55.9287109 C13.4423827,55.9287109 12.7714843,55.2568359 12.7714843,54.4287109 C12.7714843,53.600708 13.4423827,52.9287109 14.2714843,52.9287109 L24.9276733,52.9287109 C25.7558899,52.9287109 26.4276733,53.600708 26.4276733,54.4287109 C26.4276733,55.2568359 25.7558899,55.9287109 24.9276733,55.9287109 L24.9276733,55.9287109 Z" id="Shape" fill="#444445" sketch:type="MSShapeGroup"></path>
            <path d="M57.1288757,40.7919922 C56.7450866,40.7919922 56.3612976,40.6455078 56.0683899,40.3525391 C55.4823914,39.7666016 55.4823914,38.8175049 56.0683899,38.2314453 L60.5546875,33.7451172 C61.1405945,33.1591797 62.0897827,33.1591797 62.6767883,33.7451172 C63.2616882,34.3310547 63.2616882,35.2802734 62.6767883,35.866211 L58.1894836,40.3525391 C57.8964844,40.6455078 57.5126953,40.7919922 57.1288757,40.7919922 L57.1288757,40.7919922 Z" id="Shape" fill="#444445" sketch:type="MSShapeGroup"></path>
            <path d="M22.8017883,75.1181641 C22.4188842,75.1181641 22.0351867,74.9716797 21.7421875,74.678711 C21.1562805,74.0927735 21.1562805,73.1435548 21.7421875,72.5576172 L26.2284851,68.0712891 C26.8144836,67.4853516 27.7637024,67.4853516 28.3486023,68.0712891 C28.9354858,68.6572266 28.9354858,69.6064453 28.3486023,70.1925049 L23.8632813,74.678711 C23.5692749,74.9716797 23.1854858,75.1181641 22.8017883,75.1181641 L22.8017883,75.1181641 Z" id="Shape" fill="#444445" sketch:type="MSShapeGroup"></path>
            <path d="M61.2167969,75.2294922 C60.8330078,75.2294922 60.4491883,75.0830078 60.1562805,74.7900391 L55.6688843,70.3027344 C55.0830078,69.7167969 55.0830078,68.7675782 55.6688843,68.1816406 C56.2548828,67.5957031 57.2041016,67.5957031 57.7900086,68.1816406 L62.2772828,72.6689453 C62.8632813,73.2550049 62.8632813,74.2041015 62.2772828,74.7900391 C61.984375,75.0830078 61.6005859,75.2294922 61.2167969,75.2294922 L61.2167969,75.2294922 Z" id="Shape" fill="#444445" sketch:type="MSShapeGroup"></path>
            <path d="M26.8905945,40.9033203 C26.5067749,40.9033203 26.1229859,40.7568359 25.8300781,40.4638672 L21.3427734,35.9765625 C20.7567749,35.390625 20.7567749,34.4414063 21.3427734,33.8554687 C21.9286804,33.2695312 22.8778991,33.2695312 23.4638977,33.8554687 L27.9512024,38.3427734 C28.5370789,38.9287109 28.5370789,39.8779296 27.9512024,40.4638672 C27.6582031,40.7568359 27.2743835,40.9033203 26.8905945,40.9033203 L26.8905945,40.9033203 Z" id="Shape" fill="#444445" sketch:type="MSShapeGroup"></path>
            <path d="M41.8974915,60.4199219 C38.8563843,60.4199219 36.3817749,57.9462891 36.3817749,54.9052735 C36.3817749,52.2558594 38.0351868,50.0371094 40.2294922,49.5097657 L50.8330078,27.0937501 C51.0038757,26.7314454 51.3144836,26.4521485 51.6933899,26.319336 C52.0722961,26.1884766 52.4872742,26.2119141 52.8476868,26.3876954 L56.9325867,28.3847657 C57.6747742,28.7470704 57.984375,29.6406251 57.625,30.3837891 L46.921875,52.578125 C47.3183899,53.3134766 47.4111023,54.0302734 47.4111023,54.9052734 C47.4111023,57.9462891 44.9384766,60.4199219 41.8974915,60.4199219 L41.8974915,60.4199219 Z M52.8945007,29.75 L42.5917968,51.5322266 C42.3437804,52.0566407 41.8153991,52.390625 41.235382,52.390625 C40.2313842,52.390625 39.3817748,53.5419922 39.3817748,54.9052734 C39.3817748,56.2919922 40.510681,57.4199218 41.8974914,57.4199218 C43.2832031,57.4199218 44.4111022,56.2919921 44.4111022,54.9052734 C44.4111022,54.1748046 44.3476867,54.0292968 44.0468749,53.671875 C43.665985,53.2197266 43.5858764,52.5869141 43.8437804,52.0548096 L54.2753905,30.4248047 L52.8945007,29.75 L52.8945007,29.75 Z" id="Shape" fill="#4990E2" sketch:type="MSShapeGroup"></path>
            <path d="M17.5634766,106.863403 C13.8183899,106.863403 10.7714844,103.81543 10.7714844,100.069336 C10.7714844,96.6855468 13.2070008,93.8966064 16.4599915,93.3720703 L19.3330079,88.1953125 C19.7353822,87.4726563 20.6483766,87.2109375 21.3729859,87.6123047 C22.0966797,88.0146485 22.3573914,88.9277344 21.9560853,89.6523438 L18.7020875,95.5146485 C18.4452821,95.9757081 17.9657899,96.2685547 17.4394837,96.2851563 C15.381775,96.3525391 13.7714844,98.0146485 13.7714844,100.069336 C13.7714844,102.161133 15.4726868,103.863403 17.5634766,103.863403 C19.6542969,103.863403 21.3554993,102.161133 21.3554993,100.069336 C21.3554993,99.0898438 20.9794922,98.1591798 20.2978821,97.4472657 C19.9823914,97.1201173 19.8340149,96.6679688 19.8925781,96.2177735 C19.9501953,95.7675782 20.2090149,95.3681641 20.5957031,95.1308594 L27.0478821,91.1738282 C27.7538758,90.7402344 28.6767883,90.9619141 29.1103821,91.6679688 C29.5438843,92.3740235 29.3222962,93.2978516 28.6151734,93.7304688 L23.5400086,96.84375 C24.0722962,97.8261719 24.3554993,98.9287109 24.3554993,100.069336 C24.3554993,103.81543 21.3085938,106.863403 17.5634766,106.863403 L17.5634766,106.863403 Z" id="Shape" fill="#444445" sketch:type="MSShapeGroup"></path>
            <path d="M67.5692749,107.67981 C63.8241882,107.67981 60.7772827,104.632812 60.7772827,100.886719 C60.7772827,99.7460938 61.0604858,98.6425782 61.5937805,97.6611329 L56.5175781,94.5468751 C55.8104858,94.1142579 55.5897827,93.1904298 56.0224914,92.4843751 C56.4560852,91.7773439 57.3788757,91.5566407 58.0858764,91.9902345 L64.5370788,95.9482423 C64.9247741,96.185547 65.1825866,96.5849611 65.2411804,97.0351564 C65.2987976,97.4853517 65.1503906,97.9375002 64.8349914,98.2656252 C64.1532897,98.9765627 63.7772827,99.9072268 63.7772827,100.886719 C63.7772827,102.978516 65.4784851,104.67981 67.5692749,104.67981 C69.6620789,104.67981 71.3642883,102.978516 71.3642883,100.886719 C71.3642883,98.8310549 69.7520141,97.1689456 67.6942749,97.1015628 C67.1669922,97.0849612 66.6884766,96.7919925 66.4315796,96.331055 L63.1767883,90.4697269 C62.7753906,89.7451175 63.0361023,88.8320316 63.7606811,88.4298099 C64.485382,88.0273441 65.3983764,88.2890628 65.8007812,89.0126956 L68.6737976,94.1884768 C71.9276733,94.7119143 74.3642883,97.5019534 74.3642883,100.886719 C74.3642883,104.632812 71.3163757,107.67981 67.5692749,107.67981 L67.5692749,107.67981 Z" id="Shape" fill="#444445" sketch:type="MSShapeGroup"></path>
            <path d="M42.4833984,15.5273438 C41.6542968,15.5273438 40.9833984,14.8554688 40.9833984,14.0273438 L40.9833984,9.9072266 C40.9833984,9.0791016 41.6542968,8.4072266 42.4833984,8.4072266 C43.3125,8.4072266 43.9833984,9.0791016 43.9833984,9.9072266 L43.9833984,14.0273438 C43.9833984,14.8554688 43.3125,15.5273438 42.4833984,15.5273438 L42.4833984,15.5273438 Z" id="Shape" fill="#444445" sketch:type="MSShapeGroup"></path>
            <path d="M45.6405945,7.5664062 L39.4472962,7.5664062 C38.6190796,7.5664062 37.9472962,6.8945312 37.9472962,6.0664062 C37.9472962,5.2384033 38.6190796,4.5664062 39.4472962,4.5664062 L45.6405945,4.5664062 C46.4696961,4.5664062 47.1405945,5.2384033 47.1405945,6.0664062 C47.1405945,6.8945312 46.469696,7.5664062 45.6405945,7.5664062 L45.6405945,7.5664062 Z" id="Shape" fill="#444445" sketch:type="MSShapeGroup"></path>
            <path d="M15.9013977,67.4023438 C15.3222961,67.4023438 14.7704773,67.0654297 14.5253906,66.5009766 C14.1942749,65.741211 14.5429992,64.8574219 15.3017883,64.5273438 L37.2832031,54.9628907 C38.0438843,54.6308595 38.9276733,54.9804688 39.257782,55.7392579 C39.5878906,56.4990235 39.2401734,57.3828126 38.4813843,57.7128907 L16.4989929,67.2773438 C16.3046875,67.3623047 16.101593,67.4023438 15.9013977,67.4023438 L15.9013977,67.4023438 Z" id="Shape" fill="#4990E2" sketch:type="MSShapeGroup"></path>
            <path d="M16.6142883,19.0537109 C16.1884765,19.0537109 15.7675781,18.8730468 15.4726867,18.5283203 C13.8905944,16.6767578 12.7714843,15.1416015 12.7714843,12.2207031 C12.7714843,6.0107422 17.8231811,0.9580078 24.0332031,0.9580078 C30.226593,0.9580078 34.7313843,4.6591797 35.2431946,10.1679687 C35.3144837,10.9374999 34.7900086,11.6357421 34.0302735,11.7802734 C33.2108765,11.9365234 32.3847962,12.1191406 31.5751954,12.3222656 C30.7714845,12.524414 29.9560853,12.0371094 29.7538758,11.234375 C29.5517884,10.4316406 30.0390931,9.6162109 30.8427735,9.4140625 C31.2313843,9.3154297 31.6229859,9.2226563 32.0155945,9.1347656 C31.1229859,5.9492187 28.1260071,3.9580078 24.0332031,3.9580078 C19.477478,3.9580078 15.7714843,7.665039 15.7714843,12.2207031 C15.7714843,13.6474609 16.110382,14.4824219 16.9082031,15.5419922 C19.4608764,13.8681641 22.1591797,12.4541016 24.945282,11.3330078 C25.5800781,11.078125 26.2187805,10.836914 26.8651734,10.6103516 C27.6474915,10.3378907 28.5028992,10.7470704 28.7772828,11.5283204 C29.0526734,12.3095704 28.6416016,13.1660157 27.8603822,13.4404298 C27.25589,13.6533204 26.6562806,13.8789064 26.0644838,14.116211 C23.0663759,15.3232422 20.1757814,16.8935548 17.4726869,18.7832032 C17.2108765,18.9648438 16.9111023,19.0537109 16.6142883,19.0537109 L16.6142883,19.0537109 Z" id="Shape" fill="#444445" sketch:type="MSShapeGroup"></path>
            <path d="M68.6132812,19.4550781 C68.3153991,19.4550781 68.0155944,19.3662109 67.7548828,19.1845703 C66.7313843,18.46875 65.6708984,17.7929687 64.6034851,17.1738281 C63.8856811,16.758789 63.6416016,15.8408203 64.0565796,15.1240234 C64.4726868,14.4072265 65.3895874,14.1611328 66.1063843,14.578125 C66.850586,15.0087891 67.5907898,15.4658203 68.3192749,15.9433594 C69.1161804,14.8837891 69.4560852,14.0488282 69.4560852,12.6220703 C69.4560852,8.0664062 65.7489929,4.359375 61.1933899,4.359375 C57.101593,4.359375 54.1034851,6.350708 53.2108765,9.5361328 C55.6317749,10.0800781 58.0038758,10.8175049 60.2821961,11.734375 C60.9560853,12.0068359 61.6210938,12.2929688 62.2782899,12.5947266 C63.0312806,12.9404297 63.3612977,13.8310547 63.0155946,14.5841065 C62.6688844,15.3359376 61.7772828,15.6640626 61.0263978,15.3212891 C60.412079,15.0390625 59.7900086,14.7705079 59.1601869,14.5175782 C56.6103822,13.4892579 53.9296876,12.7031251 51.1962892,12.1816407 C50.4375001,12.0361329 49.912079,11.3388673 49.9843751,10.569336 C50.4960939,5.0605469 55.0020143,1.3593751 61.19339,1.3593751 C67.4032899,1.3593751 72.4560853,6.4121095 72.4560853,12.6220704 C72.4560853,15.5429688 71.3358766,17.0781251 69.7548829,18.9298097 C69.4599915,19.2744141 69.039093,19.4550781 68.6132812,19.4550781 L68.6132812,19.4550781 Z" id="Shape" fill="#444445" sketch:type="MSShapeGroup"></path>
            <path d="M18.2763977,13.1181641 C18.2177734,13.1181641 18.1582031,13.1152344 18.0986023,13.1074219 C17.2763977,13.0107422 16.6884766,12.265625 16.7851868,11.4425049 C17.2938843,7.1230469 20.3632813,5.7460938 20.4931946,5.6904297 C21.2538758,5.3574219 22.1366883,5.7109375 22.4657898,6.4707031 C22.7919922,7.2236328 22.4520874,8.0966797 21.7070007,8.4335937 C21.601593,8.4853515 20.0596008,9.2832031 19.7645874,11.7939453 C19.6737976,12.5566406 19.0263977,13.1181641 18.2763977,13.1181641 L18.2763977,13.1181641 Z" id="Shape" fill="#444445" sketch:type="MSShapeGroup"></path>
            <path d="M57.1454773,9.3544922 C56.7353821,9.3544922 56.3270874,9.1875 56.0302734,8.8583984 C55.476593,8.243164 55.5253906,7.2939453 56.1405944,6.7402343 C58.8612975,4.2882079 61.6142882,4.8009032 61.9188842,4.8673095 C62.728485,5.0439452 63.2421874,5.8437499 63.0644836,6.6533202 C62.8895874,7.4570311 62.0995788,7.9687499 61.2938842,7.8017577 C61.1972961,7.783203 59.7226867,7.5509032 58.1483764,8.9687499 C57.8622742,9.2275391 57.5028992,9.3544922 57.1454773,9.3544922 L57.1454773,9.3544922 Z" id="Shape" fill="#444445" sketch:type="MSShapeGroup"></path>
        </g>
    </g>
</svg>